<svg xmlns="http://www.w3.org/2000/svg" xmlns:xlink="http://www.w3.org/1999/xlink" width="33" height="30" viewBox="0 0 33 30"><defs><path id="9wvsa" d="M786 328c0-1.5 1.5-3 3-3h16c1.5 0 3 1.5 3 3v10c0 1.5-1.5 3-3 3h-16c-1.5 0-3-1.5-3-3z"/><path id="9wvsb" d="M795 331.5a2.5 2.5 0 1 1 5 0 2.5 2.5 0 0 1-5 0z"/><path id="9wvsc" d="M796 333c0-.5.5-1 1-1h1c.5 0 1 .5 1 1v4c0 .5-.5 1-1 1h-1c-.5 0-1-.5-1-1z"/><path id="9wvsd" d="M791.433 318.835s-.771-5.981 6.451-5.709c7.223.273 5.713 10.828 5.74 12.684"/><path id="9wvse" d="M782.5 320.5h3"/><path id="9wvsf" d="M779.5 317.5l1 1"/><path id="9wvsg" d="M776.5 325.5l2-1"/><path id="9wvsh" d="M776.5 331.5l9-9"/><path id="9wvsi" d="M779.5 313.5l6 5"/></defs><g><g transform="translate(-775 -311)"><use fill="#fff" xlink:href="#9wvsa"/></g><g transform="translate(-775 -311)"><use fill="#fff" xlink:href="#9wvsb"/></g><g transform="translate(-775 -311)"><use fill="#fff" xlink:href="#9wvsc"/></g><g transform="translate(-775 -311)"><use fill="#fff" fill-opacity="0" stroke="#fff" stroke-linecap="round" stroke-miterlimit="50" stroke-width="4" xlink:href="#9wvsd"/></g><g transform="translate(-775 -311)"><use fill="#fff" fill-opacity="0" stroke="#fff" stroke-linecap="round" stroke-miterlimit="50" xlink:href="#9wvse"/></g><g transform="translate(-775 -311)"><use fill="#fff" fill-opacity="0" stroke="#fff" stroke-linecap="round" stroke-miterlimit="50" xlink:href="#9wvsf"/></g><g transform="translate(-775 -311)"><use fill="#fff" fill-opacity="0" stroke="#fff" stroke-linecap="round" stroke-miterlimit="50" xlink:href="#9wvsg"/></g><g transform="translate(-775 -311)"><use fill="#fff" fill-opacity="0" stroke="#fff" stroke-linecap="round" stroke-miterlimit="50" xlink:href="#9wvsh"/></g><g transform="translate(-775 -311)"><use fill="#fff" fill-opacity="0" stroke="#fff" stroke-linecap="round" stroke-miterlimit="50" xlink:href="#9wvsi"/></g></g></svg>