<svg xmlns="http://www.w3.org/2000/svg" xmlns:xlink="http://www.w3.org/1999/xlink" width="63" height="72" viewBox="0 0 63 72"><defs><path id="3n9ta" d="M975.459 415.98c0-13.104 10.622-23.726 23.726-23.726 13.103 0 23.725 10.622 23.725 23.726 0 13.103-10.622 23.725-23.725 23.725-13.104 0-23.726-10.622-23.726-23.725z"/><path id="3n9tb" d="M994.662 440.185l-11.51 19.936-3.819-9.288-9.954 1.337 11.31-19.588z"/><path id="3n9tc" d="M1003.706 440.185l11.51 19.936 3.82-9.288 9.953 1.337-11.309-19.588z"/><path id="3n9td" d="M982.632 415.98c0-9.141 7.41-16.552 16.553-16.552 9.142 0 16.553 7.41 16.553 16.553 0 9.141-7.411 16.552-16.553 16.552-9.142 0-16.553-7.41-16.553-16.552z"/><path id="3n9te" d="M999.182 406.425l3.007 6.087 6.718.975-4.86 4.74 1.15 6.69-6.01-3.157-6.009 3.16 1.146-6.69-4.862-4.738 6.718-.978z"/><path id="3n9tf" d="M1003.084 417.24a1.38 1.38 0 0 0-.396 1.22l.676 3.937-3.536-1.858a1.38 1.38 0 0 0-1.284 0l-3.534 1.86.674-3.936a1.38 1.38 0 0 0-.397-1.221l-2.86-2.787 3.951-.576a1.38 1.38 0 0 0 1.039-.754l1.766-3.582 1.769 3.58c.2.408.59.69 1.039.755l3.952.573zm7.135-4.18a1.38 1.38 0 0 0-1.114-.938l-6-.87-2.686-5.437a1.38 1.38 0 0 0-2.474 0l-2.681 5.439-6 .873a1.38 1.38 0 0 0-.765 2.353l4.344 4.232-1.024 5.976a1.38 1.38 0 0 0 2.002 1.454l5.366-2.823 5.368 2.82a1.379 1.379 0 0 0 2.001-1.455l-1.026-5.976 4.34-4.233a1.38 1.38 0 0 0 .349-1.414z"/><path id="3n9tg" d="M1019.87 449.553l-2.255-3.679a1.38 1.38 0 1 0-2.352 1.442l2.23 3.64-2.485 6.045-9.635-16.688a25.103 25.103 0 0 0 11.469-6.505l9.556 16.621zm-43.032-33.573c0-12.322 10.025-22.346 22.346-22.346 12.322 0 22.347 10.024 22.347 22.346 0 12.322-10.025 22.346-22.347 22.346-12.321 0-22.346-10.024-22.346-22.346zm6.523 41.02l-2.486-6.044 2.23-3.64a1.38 1.38 0 1 0-2.351-1.442l-2.255 3.679-6.528.876 9.556-16.621c3.13 3.1 7.069 5.385 11.469 6.505zm46.824-5.519l-11.401-19.831a24.984 24.984 0 0 0 5.506-15.67c0-13.843-11.262-25.105-25.105-25.105s-25.106 11.262-25.106 25.105a24.983 24.983 0 0 0 5.506 15.67l-11.401 19.831a1.38 1.38 0 0 0 1.38 2.055l8.898-1.195 3.415 8.304a1.38 1.38 0 0 0 2.47.165l11.51-19.936.005-.01a25.225 25.225 0 0 0 6.646 0l.004.01 11.51 19.936a1.38 1.38 0 0 0 2.47-.165l3.416-8.304 8.899 1.195a1.379 1.379 0 0 0 1.378-2.055z"/><path id="3n9th" d="M1015.376 423.699a17.773 17.773 0 0 0 1.74-7.718c0-9.888-8.043-17.932-17.931-17.932a17.94 17.94 0 0 0-8.783 2.295 1.38 1.38 0 0 0 1.353 2.404 15.178 15.178 0 0 1 7.43-1.94c8.366 0 15.173 6.806 15.173 15.173 0 2.286-.495 4.483-1.472 6.53a1.38 1.38 0 0 0 2.49 1.188z"/><path id="3n9ti" d="M1010.07 426.552l-.03.032a1.38 1.38 0 0 0 1.973 1.927l.037-.037a1.38 1.38 0 0 0-1.98-1.922z"/><path id="3n9tj" d="M1006.496 429.279a15.186 15.186 0 0 1-7.311 1.874c-8.367 0-15.174-6.807-15.174-15.173 0-2.192.457-4.306 1.358-6.283a1.38 1.38 0 1 0-2.511-1.144 17.789 17.789 0 0 0-1.606 7.427c0 9.888 8.045 17.932 17.933 17.932 3.022 0 6.01-.767 8.643-2.217a1.38 1.38 0 1 0-1.332-2.416z"/></defs><g><g transform="translate(-968 -390)"><g><use fill="#ecae02" xlink:href="#3n9ta"/></g><g><g><use fill="#20fc8f" xlink:href="#3n9tb"/></g><g><use fill="#20fc8f" xlink:href="#3n9tc"/></g></g><g><use fill="#fff" xlink:href="#3n9td"/></g><g><use fill="#e2cc06" xlink:href="#3n9te"/></g><g><use xlink:href="#3n9tf"/></g><g><use xlink:href="#3n9tg"/></g><g><use xlink:href="#3n9th"/></g><g><use xlink:href="#3n9ti"/></g><g><use xlink:href="#3n9tj"/></g></g></g></svg>