<svg xmlns="http://www.w3.org/2000/svg" xmlns:xlink="http://www.w3.org/1999/xlink" width="67" height="87" viewBox="0 0 67 87"><defs><path id="4a8ma" d="M1358.497 868.904v-7.882c0-8.684 7.057-15.865 15.718-15.865s15.72 7.18 15.72 15.865v7.882zm21.059 25.712v11.945c0 1.368-1.145 2.526-2.514 2.526h-5.653c-1.369 0-2.514-1.158-2.514-2.526v-11.945c-1.328-1.307-2.1-3.114-2.1-5.113 0-3.789 2.928-7.044 6.65-7.194a26.027 26.027 0 0 1 1.58 0c3.724.15 6.652 3.405 6.652 7.194 0 1.999-.773 3.806-2.101 5.113zm21.478-25.712v-7.882c0-14.579-11.569-26.757-26.029-27.017a58.567 58.567 0 0 0-1.58 0c-14.46.26-26.028 12.438-26.028 27.017v7.882h-1.685c-2.595 0-4.712 2.678-4.712 5.986v39.533c0 3.304 2.117 6.007 4.713 6.007h57.005c2.595 0 4.713-2.703 4.713-6.007V874.89c0-3.308-2.117-5.986-4.713-5.986z"/></defs><g><g opacity=".3" transform="translate(-1341 -834)"><use fill="#eef1f8" xlink:href="#4a8ma"/></g></g></svg>