<svg xmlns="http://www.w3.org/2000/svg" xmlns:xlink="http://www.w3.org/1999/xlink" width="27" height="22" viewBox="0 0 27 22"><defs><path id="75r0a" d="M1048.15 502.573l9.357 9.358c.349.11.615.404.684.77a1 1 0 0 1 .08.4c0 .153-.033.307-.103.449a1.004 1.004 0 0 1-.592.65l-9.427 9.427a1 1 0 0 1-1.413 0l-.272-.272a1 1 0 0 1 0-1.415l7.67-7.67h-20.365a1 1 0 0 1-1-1v-.385a1 1 0 0 1 1-1h20.32l-7.625-7.625a1 1 0 0 1 0-1.414l.272-.273a.997.997 0 0 1 1.413 0z"/></defs><g><g transform="translate(-1032 -502)"><use fill="#06e278" xlink:href="#75r0a"/></g></g></svg>